<svg width="216" height="43" viewBox="0 0 216 43" fill="none" xmlns="http://www.w3.org/2000/svg">
<path d="M63.784 27.96H74.656V33H56.8V28.32L67.6 12.768H56.8V7.728H74.656V12.408L63.784 27.96ZM81.7733 10.824C80.6933 10.824 79.8053 10.512 79.1093 9.888C78.4373 9.24 78.1013 8.448 78.1013 7.512C78.1013 6.552 78.4373 5.76 79.1093 5.136C79.8053 4.488 80.6933 4.164 81.7733 4.164C82.8293 4.164 83.6933 4.488 84.3653 5.136C85.0613 5.76 85.4093 6.552 85.4093 7.512C85.4093 8.448 85.0613 9.24 84.3653 9.888C83.6933 10.512 82.8293 10.824 81.7733 10.824ZM84.8333 12.912V33H78.6773V12.912H84.8333ZM109.815 12.912L97.2145 42.54H90.5905L95.1985 32.316L87.0265 12.912H93.9025L98.5465 25.476L103.155 12.912H109.815ZM121.185 33.288C119.217 33.288 117.441 32.868 115.857 32.028C114.297 31.188 113.061 29.988 112.149 28.428C111.261 26.868 110.817 25.044 110.817 22.956C110.817 20.892 111.273 19.08 112.185 17.52C113.097 15.936 114.345 14.724 115.929 13.884C117.513 13.044 119.289 12.624 121.257 12.624C123.225 12.624 125.001 13.044 126.585 13.884C128.169 14.724 129.417 15.936 130.329 17.52C131.241 19.08 131.697 20.892 131.697 22.956C131.697 25.02 131.229 26.844 130.293 28.428C129.381 29.988 128.121 31.188 126.513 32.028C124.929 32.868 123.153 33.288 121.185 33.288ZM121.185 27.96C122.361 27.96 123.357 27.528 124.173 26.664C125.013 25.8 125.433 24.564 125.433 22.956C125.433 21.348 125.025 20.112 124.209 19.248C123.417 18.384 122.433 17.952 121.257 17.952C120.057 17.952 119.061 18.384 118.269 19.248C117.477 20.088 117.081 21.324 117.081 22.956C117.081 24.564 117.465 25.8 118.233 26.664C119.025 27.528 120.009 27.96 121.185 27.96ZM149.218 33L139.534 21.804V33H135.43V7.98H139.534V19.392L149.254 7.98H154.402L143.53 20.508L154.582 33H149.218ZM160.3 10.536C159.556 10.536 158.932 10.284 158.428 9.78C157.924 9.276 157.672 8.652 157.672 7.908C157.672 7.164 157.924 6.54 158.428 6.036C158.932 5.532 159.556 5.28 160.3 5.28C161.02 5.28 161.632 5.532 162.136 6.036C162.64 6.54 162.892 7.164 162.892 7.908C162.892 8.652 162.64 9.276 162.136 9.78C161.632 10.284 161.02 10.536 160.3 10.536ZM162.316 13.164V33H158.212V13.164H162.316ZM166.336 22.992C166.336 21 166.744 19.236 167.56 17.7C168.4 16.164 169.528 14.976 170.944 14.136C172.384 13.272 173.98 12.84 175.732 12.84C177.028 12.84 178.3 13.128 179.548 13.704C180.82 14.256 181.828 15 182.572 15.936V6.36H186.712V33H182.572V30.012C181.9 30.972 180.964 31.764 179.764 32.388C178.588 33.012 177.232 33.324 175.696 33.324C173.968 33.324 172.384 32.892 170.944 32.028C169.528 31.14 168.4 29.916 167.56 28.356C166.744 26.772 166.336 24.984 166.336 22.992ZM182.572 23.064C182.572 21.696 182.284 20.508 181.708 19.5C181.156 18.492 180.424 17.724 179.512 17.196C178.6 16.668 177.616 16.404 176.56 16.404C175.504 16.404 174.52 16.668 173.608 17.196C172.696 17.7 171.952 18.456 171.376 19.464C170.824 20.448 170.548 21.624 170.548 22.992C170.548 24.36 170.824 25.56 171.376 26.592C171.952 27.624 172.696 28.416 173.608 28.968C174.544 29.496 175.528 29.76 176.56 29.76C177.616 29.76 178.6 29.496 179.512 28.968C180.424 28.44 181.156 27.672 181.708 26.664C182.284 25.632 182.572 24.432 182.572 23.064ZM199.302 33.324C197.742 33.324 196.338 33.048 195.09 32.496C193.866 31.92 192.894 31.152 192.174 30.192C191.454 29.208 191.07 28.116 191.022 26.916H195.27C195.342 27.756 195.738 28.464 196.458 29.04C197.202 29.592 198.126 29.868 199.23 29.868C200.382 29.868 201.27 29.652 201.894 29.22C202.542 28.764 202.866 28.188 202.866 27.492C202.866 26.748 202.506 26.196 201.786 25.836C201.09 25.476 199.974 25.08 198.438 24.648C196.95 24.24 195.738 23.844 194.802 23.46C193.866 23.076 193.05 22.488 192.354 21.696C191.682 20.904 191.346 19.86 191.346 18.564C191.346 17.508 191.658 16.548 192.282 15.684C192.906 14.796 193.794 14.1 194.946 13.596C196.122 13.092 197.466 12.84 198.978 12.84C201.234 12.84 203.046 13.416 204.414 14.568C205.806 15.696 206.55 17.244 206.646 19.212H202.542C202.47 18.324 202.11 17.616 201.462 17.088C200.814 16.56 199.938 16.296 198.834 16.296C197.754 16.296 196.926 16.5 196.35 16.908C195.774 17.316 195.486 17.856 195.486 18.528C195.486 19.056 195.678 19.5 196.062 19.86C196.446 20.22 196.914 20.508 197.466 20.724C198.018 20.916 198.834 21.168 199.914 21.48C201.354 21.864 202.53 22.26 203.442 22.668C204.378 23.052 205.182 23.628 205.854 24.396C206.526 25.164 206.874 26.184 206.898 27.456C206.898 28.584 206.586 29.592 205.962 30.48C205.338 31.368 204.45 32.064 203.298 32.568C202.17 33.072 200.838 33.324 199.302 33.324Z" fill="white"/>
<rect width="40" height="40" rx="11" fill="#FA865F"/>
<path d="M19.3181 26.628H29.5421V33H10.4621V26.988L20.5421 13.848H10.4621V7.512H29.5421V13.524L19.3181 26.628Z" fill="white"/>
</svg>
